<?xml version="1.0" encoding="us-ascii" standalone="no"?><svg xmlns="http://www.w3.org/2000/svg" xmlns:xlink="http://www.w3.org/1999/xlink" contentStyleType="text/css" height="941px" preserveAspectRatio="none" style="width:2198px;height:941px;background:#FFFFFF;" version="1.1" viewBox="0 0 2198 941" width="2198px" zoomAndPan="magnify"><defs/><g><!--cluster ccmaze--><g id="cluster_ccmaze"><path d="M8.5,6 L61.5,6 A3.75,3.75 0 0 1 64,8.5 L71,29.6094 L2188.5,29.6094 A2.5,2.5 0 0 1 2191,32.1094 L2191,931.5 A2.5,2.5 0 0 1 2188.5,934 L8.5,934 A2.5,2.5 0 0 1 6,931.5 L6,8.5 A2.5,2.5 0 0 1 8.5,6 " fill="none" style="stroke:#000000;stroke-width:1.5;"/><line style="stroke:#000000;stroke-width:1.5;" x1="6" x2="71" y1="29.6094" y2="29.6094"/><text fill="#000000" font-family="sans-serif" font-size="14" font-weight="bold" lengthAdjust="spacing" textLength="52" x="10" y="22.5332">ccmaze</text></g><!--cluster generators--><g id="cluster_generators"><path d="M644.5,50 L723.5,50 A3.75,3.75 0 0 1 726,52.5 L733,73.6094 L1862.5,73.6094 A2.5,2.5 0 0 1 1865,76.1094 L1865,481.5 A2.5,2.5 0 0 1 1862.5,484 L644.5,484 A2.5,2.5 0 0 1 642,481.5 L642,52.5 A2.5,2.5 0 0 1 644.5,50 " fill="none" style="stroke:#000000;stroke-width:1.5;"/><line style="stroke:#000000;stroke-width:1.5;" x1="642" x2="733" y1="73.6094" y2="73.6094"/><text fill="#000000" font-family="sans-serif" font-size="14" font-weight="bold" lengthAdjust="spacing" textLength="78" x="646" y="66.5332">generators</text></g><!--cluster deepFirst--><g id="cluster_deepFirst"><path d="M984.5,290 L1053.5,290 A3.75,3.75 0 0 1 1056,292.5 L1063,313.6094 L1442.5,313.6094 A2.5,2.5 0 0 1 1445,316.1094 L1445,457.5 A2.5,2.5 0 0 1 1442.5,460 L984.5,460 A2.5,2.5 0 0 1 982,457.5 L982,292.5 A2.5,2.5 0 0 1 984.5,290 " fill="none" style="stroke:#000000;stroke-width:1.5;"/><line style="stroke:#000000;stroke-width:1.5;" x1="982" x2="1063" y1="313.6094" y2="313.6094"/><text fill="#000000" font-family="sans-serif" font-size="14" font-weight="bold" lengthAdjust="spacing" textLength="68" x="986" y="306.5332">deepFirst</text></g><!--cluster kruskal--><g id="cluster_kruskal"><path d="M668.5,94 L720.5,94 A3.75,3.75 0 0 1 723,96.5 L730,117.6094 L955.5,117.6094 A2.5,2.5 0 0 1 958,120.1094 L958,431.5 A2.5,2.5 0 0 1 955.5,434 L668.5,434 A2.5,2.5 0 0 1 666,431.5 L666,96.5 A2.5,2.5 0 0 1 668.5,94 " fill="none" style="stroke:#000000;stroke-width:1.5;"/><line style="stroke:#000000;stroke-width:1.5;" x1="666" x2="730" y1="117.6094" y2="117.6094"/><text fill="#000000" font-family="sans-serif" font-size="14" font-weight="bold" lengthAdjust="spacing" textLength="51" x="670" y="110.5332">kruskal</text></g><!--cluster originShift--><g id="cluster_originShift"><path d="M1471.5,102.5 L1545.5,102.5 A3.75,3.75 0 0 1 1548,105 L1555,126.1094 L1838.5,126.1094 A2.5,2.5 0 0 1 1841,128.6094 L1841,431.5 A2.5,2.5 0 0 1 1838.5,434 L1471.5,434 A2.5,2.5 0 0 1 1469,431.5 L1469,105 A2.5,2.5 0 0 1 1471.5,102.5 " fill="none" style="stroke:#000000;stroke-width:1.5;"/><line style="stroke:#000000;stroke-width:1.5;" x1="1469" x2="1555" y1="126.1094" y2="126.1094"/><text fill="#000000" font-family="sans-serif" font-size="14" font-weight="bold" lengthAdjust="spacing" textLength="73" x="1473" y="119.0332">originShift</text></g><!--cluster filters--><g id="cluster_filters"><path d="M362.5,102.5 L404.5,102.5 A3.75,3.75 0 0 1 407,105 L414,126.1094 L615.5,126.1094 A2.5,2.5 0 0 1 618,128.6094 L618,431.5 A2.5,2.5 0 0 1 615.5,434 L362.5,434 A2.5,2.5 0 0 1 360,431.5 L360,105 A2.5,2.5 0 0 1 362.5,102.5 " fill="none" style="stroke:#000000;stroke-width:1.5;"/><line style="stroke:#000000;stroke-width:1.5;" x1="360" x2="414" y1="126.1094" y2="126.1094"/><text fill="#000000" font-family="sans-serif" font-size="14" font-weight="bold" lengthAdjust="spacing" textLength="41" x="364" y="119.0332">filters</text></g><!--cluster postprocess--><g id="cluster_postprocess"><path d="M1891.5,307.5 L1980.5,307.5 A3.75,3.75 0 0 1 1983,310 L1990,331.1094 L2164.5,331.1094 A2.5,2.5 0 0 1 2167,333.6094 L2167,702.5 A2.5,2.5 0 0 1 2164.5,705 L1891.5,705 A2.5,2.5 0 0 1 1889,702.5 L1889,310 A2.5,2.5 0 0 1 1891.5,307.5 " fill="none" style="stroke:#000000;stroke-width:1.5;"/><line style="stroke:#000000;stroke-width:1.5;" x1="1889" x2="1990" y1="331.1094" y2="331.1094"/><text fill="#000000" font-family="sans-serif" font-size="14" font-weight="bold" lengthAdjust="spacing" textLength="88" x="1893" y="324.0332">postprocess</text></g><!--cluster utils--><g id="cluster_utils"><path d="M450.5,508 L481.5,508 A3.75,3.75 0 0 1 484,510.5 L491,531.6094 L1052.5,531.6094 A2.5,2.5 0 0 1 1055,534.1094 L1055,907.5 A2.5,2.5 0 0 1 1052.5,910 L450.5,910 A2.5,2.5 0 0 1 448,907.5 L448,510.5 A2.5,2.5 0 0 1 450.5,508 " fill="none" style="stroke:#000000;stroke-width:1.5;"/><line style="stroke:#000000;stroke-width:1.5;" x1="448" x2="491" y1="531.6094" y2="531.6094"/><text fill="#000000" font-family="sans-serif" font-size="14" font-weight="bold" lengthAdjust="spacing" textLength="30" x="452" y="524.5332">utils</text></g><!--class Maze--><g id="elem_Maze"><rect codeLine="99" fill="#F1F1F1" height="136.0469" id="Maze" rx="2.5" ry="2.5" style="stroke:#181818;stroke-width:0.5;" width="322" x="22" y="121"/><ellipse cx="162.25" cy="137" fill="#ADD1B2" rx="11" ry="11" style="stroke:#181818;stroke-width:1.0;"/><path d="M165.0156,132.875 Q165.1719,132.6563 165.3594,132.5469 Q165.5469,132.4375 165.7656,132.4375 Q166.1406,132.4375 166.375,132.7031 Q166.6094,132.9531 166.6094,133.5625 L166.6094,135.0156 Q166.6094,135.625 166.375,135.8906 Q166.1406,136.1563 165.7656,136.1563 Q165.4219,136.1563 165.2188,135.9531 Q165.0156,135.7656 164.9063,135.25 Q164.8594,134.8906 164.6719,134.7031 Q164.3438,134.3281 163.7344,134.1094 Q163.125,133.8906 162.5,133.8906 Q161.7344,133.8906 161.0938,134.2188 Q160.4688,134.5469 159.9688,135.2969 Q159.4844,136.0469 159.4844,137.0781 L159.4844,138.1719 Q159.4844,139.4063 160.375,140.2344 Q161.2656,141.0469 162.8594,141.0469 Q163.7969,141.0469 164.4531,140.7969 Q164.8438,140.6406 165.2656,140.2031 Q165.5313,139.9375 165.6719,139.8594 Q165.8281,139.7813 166.0313,139.7813 Q166.3594,139.7813 166.6094,140.0469 Q166.875,140.2969 166.875,140.6406 Q166.875,140.9844 166.5313,141.3906 Q166.0313,141.9688 165.2344,142.2969 Q164.1563,142.75 162.8594,142.75 Q161.3438,142.75 160.1406,142.125 Q159.1563,141.625 158.4688,140.5625 Q157.7813,139.4844 157.7813,138.2031 L157.7813,137.0469 Q157.7813,135.7188 158.3906,134.5781 Q159.0156,133.4219 160.1094,132.8125 Q161.2031,132.1875 162.4375,132.1875 Q163.1719,132.1875 163.8125,132.3594 Q164.4688,132.5156 165.0156,132.875 Z " fill="#000000"/><text fill="#000000" font-family="sans-serif" font-size="14" lengthAdjust="spacing" textLength="33" x="182.75" y="142.7285">Maze</text><line style="stroke:#181818;stroke-width:0.5;" x1="23" x2="343" y1="153" y2="153"/><ellipse cx="33" cy="167.3047" fill="none" rx="3" ry="3" style="stroke:#038048;stroke-width:1.0;"/><text fill="#000000" font-family="sans-serif" font-size="14" lengthAdjust="spacing" textLength="84" x="42" y="171.5332">width: Integer</text><ellipse cx="33" cy="184.9141" fill="none" rx="3" ry="3" style="stroke:#038048;stroke-width:1.0;"/><text fill="#000000" font-family="sans-serif" font-size="14" lengthAdjust="spacing" textLength="91" x="42" y="189.1426">height: Integer</text><ellipse cx="33" cy="202.5234" fill="none" rx="3" ry="3" style="stroke:#038048;stroke-width:1.0;"/><text fill="#000000" font-family="sans-serif" font-size="14" lengthAdjust="spacing" textLength="88" x="42" y="206.752">cells: Integer[]</text><line style="stroke:#181818;stroke-width:0.5;" x1="23" x2="343" y1="213.8281" y2="213.8281"/><ellipse cx="33" cy="228.1328" fill="#84BE84" rx="3" ry="3" style="stroke:#038048;stroke-width:1.0;"/><text fill="#000000" font-family="sans-serif" font-size="14" lengthAdjust="spacing" textLength="222" x="42" y="232.3613">rebuild(producer, onUpdates): Void</text><ellipse cx="33" cy="245.7422" fill="#84BE84" rx="3" ry="3" style="stroke:#038048;stroke-width:1.0;"/><text fill="#000000" font-family="sans-serif" font-size="14" lengthAdjust="spacing" text-decoration="underline" textLength="296" x="42" y="249.9707">new(width, height, producer, onUpdates): Maze</text></g><!--class StateUpdate--><g id="elem_StateUpdate"><rect codeLine="106" fill="#F1F1F1" height="136.0469" id="StateUpdate" rx="2.5" ry="2.5" style="stroke:#181818;stroke-width:0.5;" width="252" x="1074" y="588"/><ellipse cx="1156.75" cy="604" fill="#ADD1B2" rx="11" ry="11" style="stroke:#181818;stroke-width:1.0;"/><path d="M1159.5156,599.875 Q1159.6719,599.6563 1159.8594,599.5469 Q1160.0469,599.4375 1160.2656,599.4375 Q1160.6406,599.4375 1160.875,599.7031 Q1161.1094,599.9531 1161.1094,600.5625 L1161.1094,602.0156 Q1161.1094,602.625 1160.875,602.8906 Q1160.6406,603.1563 1160.2656,603.1563 Q1159.9219,603.1563 1159.7188,602.9531 Q1159.5156,602.7656 1159.4063,602.25 Q1159.3594,601.8906 1159.1719,601.7031 Q1158.8438,601.3281 1158.2344,601.1094 Q1157.625,600.8906 1157,600.8906 Q1156.2344,600.8906 1155.5938,601.2188 Q1154.9688,601.5469 1154.4688,602.2969 Q1153.9844,603.0469 1153.9844,604.0781 L1153.9844,605.1719 Q1153.9844,606.4063 1154.875,607.2344 Q1155.7656,608.0469 1157.3594,608.0469 Q1158.2969,608.0469 1158.9531,607.7969 Q1159.3438,607.6406 1159.7656,607.2031 Q1160.0313,606.9375 1160.1719,606.8594 Q1160.3281,606.7813 1160.5313,606.7813 Q1160.8594,606.7813 1161.1094,607.0469 Q1161.375,607.2969 1161.375,607.6406 Q1161.375,607.9844 1161.0313,608.3906 Q1160.5313,608.9688 1159.7344,609.2969 Q1158.6563,609.75 1157.3594,609.75 Q1155.8438,609.75 1154.6406,609.125 Q1153.6563,608.625 1152.9688,607.5625 Q1152.2813,606.4844 1152.2813,605.2031 L1152.2813,604.0469 Q1152.2813,602.7188 1152.8906,601.5781 Q1153.5156,600.4219 1154.6094,599.8125 Q1155.7031,599.1875 1156.9375,599.1875 Q1157.6719,599.1875 1158.3125,599.3594 Q1158.9688,599.5156 1159.5156,599.875 Z " fill="#000000"/><text fill="#000000" font-family="sans-serif" font-size="14" lengthAdjust="spacing" textLength="78" x="1177.25" y="609.7285">StateUpdate</text><line style="stroke:#181818;stroke-width:0.5;" x1="1075" x2="1325" y1="620" y2="620"/><ellipse cx="1085" cy="634.3047" fill="none" rx="3" ry="3" style="stroke:#038048;stroke-width:1.0;"/><text fill="#000000" font-family="sans-serif" font-size="14" lengthAdjust="spacing" textLength="55" x="1094" y="638.5332">i: Integer</text><ellipse cx="1085" cy="651.9141" fill="none" rx="3" ry="3" style="stroke:#038048;stroke-width:1.0;"/><text fill="#000000" font-family="sans-serif" font-size="14" lengthAdjust="spacing" textLength="55" x="1094" y="656.1426">j: Integer</text><ellipse cx="1085" cy="669.5234" fill="none" rx="3" ry="3" style="stroke:#038048;stroke-width:1.0;"/><text fill="#000000" font-family="sans-serif" font-size="14" lengthAdjust="spacing" textLength="83" x="1094" y="673.752">state: Integer</text><ellipse cx="1085" cy="687.1328" fill="none" rx="3" ry="3" style="stroke:#038048;stroke-width:1.0;"/><text fill="#000000" font-family="sans-serif" font-size="14" lengthAdjust="spacing" textLength="96" x="1094" y="691.3613">progress: Float</text><line style="stroke:#181818;stroke-width:0.5;" x1="1075" x2="1325" y1="698.4375" y2="698.4375"/><ellipse cx="1085" cy="712.7422" fill="#84BE84" rx="3" ry="3" style="stroke:#038048;stroke-width:1.0;"/><text fill="#000000" font-family="sans-serif" font-size="14" lengthAdjust="spacing" text-decoration="underline" textLength="226" x="1094" y="716.9707">new(i,j,state,progress): StateUpdate</text></g><!--class AbstractGenerator--><g id="elem_AbstractGenerator"><rect codeLine="3" fill="#F1F1F1" height="153.6563" id="AbstractGenerator" rx="2.5" ry="2.5" style="stroke:#181818;stroke-width:0.5;" width="159" x="1056.5" y="112"/><ellipse cx="1076" cy="128" fill="#A9DCDF" rx="11" ry="11" style="stroke:#181818;stroke-width:1.0;"/><path d="M1078.1875,129.7656 L1074.0469,129.7656 L1073.625,130.7969 L1074.0469,130.7969 Q1074.6563,130.7969 1074.9219,131.0313 Q1075.1875,131.2656 1075.1875,131.6563 Q1075.1875,132.0313 1074.9219,132.2656 Q1074.6563,132.5 1074.0469,132.5 L1071.75,132.5 Q1071.1406,132.5 1070.8906,132.2656 Q1070.625,132.0313 1070.625,131.6406 Q1070.625,131.2656 1070.9063,131.0313 Q1071.1719,130.7813 1071.7969,130.7969 L1074.4688,124.1406 L1073.3594,124.1406 Q1072.75,124.1406 1072.4844,123.9063 Q1072.2188,123.6719 1072.2188,123.2813 Q1072.2188,122.9063 1072.4844,122.6719 Q1072.75,122.4375 1073.3594,122.4375 L1077.0313,122.4375 L1080.4219,130.7969 Q1081.0156,130.7969 1081.2031,130.9375 Q1081.5938,131.2031 1081.5938,131.6563 Q1081.5938,132.0313 1081.3281,132.2656 Q1081.0781,132.5 1080.4688,132.5 L1078.1719,132.5 Q1077.5625,132.5 1077.2969,132.2656 Q1077.0313,132.0313 1077.0313,131.6406 Q1077.0313,131.2656 1077.2969,131.0313 Q1077.5625,130.7969 1078.1719,130.7969 L1078.5938,130.7969 L1078.1875,129.7656 Z M1077.4688,128.0625 L1076.1094,124.6875 L1074.7344,128.0625 L1077.4688,128.0625 Z " fill="#000000"/><text fill="#000000" font-family="sans-serif" font-size="14" font-style="italic" lengthAdjust="spacing" textLength="117" x="1091" y="133.7285">AbstractGenerator</text><line style="stroke:#181818;stroke-width:0.5;" x1="1057.5" x2="1214.5" y1="144" y2="144"/><ellipse cx="1067.5" cy="158.3047" fill="none" rx="3" ry="3" style="stroke:#038048;stroke-width:1.0;"/><text fill="#000000" font-family="sans-serif" font-size="14" lengthAdjust="spacing" textLength="84" x="1076.5" y="162.5332">width: Integer</text><ellipse cx="1067.5" cy="175.9141" fill="none" rx="3" ry="3" style="stroke:#038048;stroke-width:1.0;"/><text fill="#000000" font-family="sans-serif" font-size="14" lengthAdjust="spacing" textLength="91" x="1076.5" y="180.1426">height: Integer</text><line style="stroke:#181818;stroke-width:0.5;" x1="1057.5" x2="1214.5" y1="187.2188" y2="187.2188"/><ellipse cx="1067.5" cy="201.5234" fill="#84BE84" rx="3" ry="3" style="stroke:#038048;stroke-width:1.0;"/><text fill="#000000" font-family="sans-serif" font-size="14" font-style="italic" lengthAdjust="spacing" textLength="121" x="1076.5" y="205.752">producer(): Thread</text><ellipse cx="1067.5" cy="219.1328" fill="#84BE84" rx="3" ry="3" style="stroke:#038048;stroke-width:1.0;"/><text fill="#000000" font-family="sans-serif" font-size="14" font-style="italic" lengthAdjust="spacing" textLength="103" x="1076.5" y="223.3613">generate(): Void</text><rect fill="#F24D5C" height="6" style="stroke:#C82930;stroke-width:1.0;" width="6" x="1064.5" y="233.7422"/><text fill="#000000" font-family="sans-serif" font-size="14" font-style="italic" lengthAdjust="spacing" textLength="72" x="1076.5" y="240.9707">_init(): Void</text><rect fill="#F24D5C" height="6" style="stroke:#C82930;stroke-width:1.0;" width="6" x="1064.5" y="251.3516"/><text fill="#000000" font-family="sans-serif" font-size="14" font-style="italic" lengthAdjust="spacing" textLength="133" x="1076.5" y="258.5801">_progression(): Float</text></g><!--class DeepFirstGenerator--><g id="elem_DeepFirstGenerator"><rect codeLine="13" fill="#F1F1F1" height="65.6094" id="DeepFirstGenerator" rx="2.5" ry="2.5" style="stroke:#181818;stroke-width:0.5;" width="275" x="998.5" y="352"/><ellipse cx="1068.25" cy="368" fill="#ADD1B2" rx="11" ry="11" style="stroke:#181818;stroke-width:1.0;"/><path d="M1071.0156,363.875 Q1071.1719,363.6563 1071.3594,363.5469 Q1071.5469,363.4375 1071.7656,363.4375 Q1072.1406,363.4375 1072.375,363.7031 Q1072.6094,363.9531 1072.6094,364.5625 L1072.6094,366.0156 Q1072.6094,366.625 1072.375,366.8906 Q1072.1406,367.1563 1071.7656,367.1563 Q1071.4219,367.1563 1071.2188,366.9531 Q1071.0156,366.7656 1070.9063,366.25 Q1070.8594,365.8906 1070.6719,365.7031 Q1070.3438,365.3281 1069.7344,365.1094 Q1069.125,364.8906 1068.5,364.8906 Q1067.7344,364.8906 1067.0938,365.2188 Q1066.4688,365.5469 1065.9688,366.2969 Q1065.4844,367.0469 1065.4844,368.0781 L1065.4844,369.1719 Q1065.4844,370.4063 1066.375,371.2344 Q1067.2656,372.0469 1068.8594,372.0469 Q1069.7969,372.0469 1070.4531,371.7969 Q1070.8438,371.6406 1071.2656,371.2031 Q1071.5313,370.9375 1071.6719,370.8594 Q1071.8281,370.7813 1072.0313,370.7813 Q1072.3594,370.7813 1072.6094,371.0469 Q1072.875,371.2969 1072.875,371.6406 Q1072.875,371.9844 1072.5313,372.3906 Q1072.0313,372.9688 1071.2344,373.2969 Q1070.1563,373.75 1068.8594,373.75 Q1067.3438,373.75 1066.1406,373.125 Q1065.1563,372.625 1064.4688,371.5625 Q1063.7813,370.4844 1063.7813,369.2031 L1063.7813,368.0469 Q1063.7813,366.7188 1064.3906,365.5781 Q1065.0156,364.4219 1066.1094,363.8125 Q1067.2031,363.1875 1068.4375,363.1875 Q1069.1719,363.1875 1069.8125,363.3594 Q1070.4688,363.5156 1071.0156,363.875 Z " fill="#000000"/><text fill="#000000" font-family="sans-serif" font-size="14" lengthAdjust="spacing" textLength="127" x="1088.75" y="373.7285">DeepFirstGenerator</text><line style="stroke:#181818;stroke-width:0.5;" x1="999.5" x2="1272.5" y1="384" y2="384"/><line style="stroke:#181818;stroke-width:0.5;" x1="999.5" x2="1272.5" y1="392" y2="392"/><ellipse cx="1009.5" cy="406.3047" fill="#84BE84" rx="3" ry="3" style="stroke:#038048;stroke-width:1.0;"/><text fill="#000000" font-family="sans-serif" font-size="14" lengthAdjust="spacing" text-decoration="underline" textLength="249" x="1018.5" y="410.5332">new(width, height): DeepFirstGenerator</text></g><!--class CELL_STATE--><g id="elem_CELL_STATE"><rect codeLine="16" fill="#F1F1F1" height="118.4375" id="CELL_STATE" rx="2.5" ry="2.5" style="stroke:#181818;stroke-width:0.5;" width="120" x="1309" y="326"/><ellipse cx="1324" cy="342" fill="#EB937F" rx="11" ry="11" style="stroke:#181818;stroke-width:1.0;"/><path d="M1322.8594,342.7969 L1322.8594,345.2969 L1327.1875,345.2969 L1327.1875,344.375 Q1327.1875,343.7656 1327.4219,343.5 Q1327.6719,343.2344 1328.0469,343.2344 Q1328.4219,343.2344 1328.6563,343.5 Q1328.8906,343.7656 1328.8906,344.375 L1328.8906,347 L1320.8906,347 Q1320.2656,347 1320,346.7656 Q1319.75,346.5313 1319.75,346.1406 Q1319.75,345.7656 1320.0156,345.5313 Q1320.2813,345.2969 1320.8906,345.2969 L1321.1563,345.2969 L1321.1563,338.6406 L1320.8906,338.6406 Q1320.2656,338.6406 1320,338.4063 Q1319.75,338.1719 1319.75,337.7813 Q1319.75,337.4063 1320,337.1719 Q1320.2656,336.9375 1320.8906,336.9375 L1328.5156,336.9375 L1328.5156,339.5313 Q1328.5156,340.1406 1328.2813,340.4063 Q1328.0625,340.6563 1327.6719,340.6563 Q1327.2969,340.6563 1327.0625,340.4063 Q1326.8281,340.1406 1326.8281,339.5313 L1326.8281,338.6406 L1322.8594,338.6406 L1322.8594,341.0938 L1324.3438,341.0938 Q1324.3438,340.4375 1324.4688,340.25 Q1324.7344,339.8438 1325.2031,339.8438 Q1325.5781,339.8438 1325.8125,340.1094 Q1326.0469,340.3594 1326.0469,340.9688 L1326.0469,342.9375 Q1326.0469,343.4844 1325.9219,343.6719 Q1325.6563,344.0625 1325.2031,344.0625 Q1324.7344,344.0625 1324.4688,343.6563 Q1324.3438,343.4688 1324.3438,342.7969 L1322.8594,342.7969 Z " fill="#000000"/><text fill="#000000" font-family="sans-serif" font-size="14" lengthAdjust="spacing" textLength="88" x="1338" y="347.7285">CELL_STATE</text><line style="stroke:#181818;stroke-width:0.5;" x1="1310" x2="1428" y1="358" y2="358"/><text fill="#000000" font-family="sans-serif" font-size="14" lengthAdjust="spacing" textLength="52" x="1315" y="376.5332">VISITED</text><text fill="#000000" font-family="sans-serif" font-size="14" lengthAdjust="spacing" textLength="38" x="1315" y="394.1426">WALL</text><text fill="#000000" font-family="sans-serif" font-size="14" lengthAdjust="spacing" textLength="70" x="1315" y="411.752">UNVISITED</text><text fill="#000000" font-family="sans-serif" font-size="14" lengthAdjust="spacing" textLength="73" x="1315" y="429.3613">SELECTED</text><line style="stroke:#181818;stroke-width:0.5;" x1="1310" x2="1428" y1="436.4375" y2="436.4375"/></g><!--class KruskalGenerator--><g id="elem_KruskalGenerator"><rect codeLine="27" fill="#F1F1F1" height="65.6094" id="KruskalGenerator" rx="2.5" ry="2.5" style="stroke:#181818;stroke-width:0.5;" width="260" x="682" y="352"/><ellipse cx="751.75" cy="368" fill="#ADD1B2" rx="11" ry="11" style="stroke:#181818;stroke-width:1.0;"/><path d="M754.5156,363.875 Q754.6719,363.6563 754.8594,363.5469 Q755.0469,363.4375 755.2656,363.4375 Q755.6406,363.4375 755.875,363.7031 Q756.1094,363.9531 756.1094,364.5625 L756.1094,366.0156 Q756.1094,366.625 755.875,366.8906 Q755.6406,367.1563 755.2656,367.1563 Q754.9219,367.1563 754.7188,366.9531 Q754.5156,366.7656 754.4063,366.25 Q754.3594,365.8906 754.1719,365.7031 Q753.8438,365.3281 753.2344,365.1094 Q752.625,364.8906 752,364.8906 Q751.2344,364.8906 750.5938,365.2188 Q749.9688,365.5469 749.4688,366.2969 Q748.9844,367.0469 748.9844,368.0781 L748.9844,369.1719 Q748.9844,370.4063 749.875,371.2344 Q750.7656,372.0469 752.3594,372.0469 Q753.2969,372.0469 753.9531,371.7969 Q754.3438,371.6406 754.7656,371.2031 Q755.0313,370.9375 755.1719,370.8594 Q755.3281,370.7813 755.5313,370.7813 Q755.8594,370.7813 756.1094,371.0469 Q756.375,371.2969 756.375,371.6406 Q756.375,371.9844 756.0313,372.3906 Q755.5313,372.9688 754.7344,373.2969 Q753.6563,373.75 752.3594,373.75 Q750.8438,373.75 749.6406,373.125 Q748.6563,372.625 747.9688,371.5625 Q747.2813,370.4844 747.2813,369.2031 L747.2813,368.0469 Q747.2813,366.7188 747.8906,365.5781 Q748.5156,364.4219 749.6094,363.8125 Q750.7031,363.1875 751.9375,363.1875 Q752.6719,363.1875 753.3125,363.3594 Q753.9688,363.5156 754.5156,363.875 Z " fill="#000000"/><text fill="#000000" font-family="sans-serif" font-size="14" lengthAdjust="spacing" textLength="112" x="772.25" y="373.7285">KruskalGenerator</text><line style="stroke:#181818;stroke-width:0.5;" x1="683" x2="941" y1="384" y2="384"/><line style="stroke:#181818;stroke-width:0.5;" x1="683" x2="941" y1="392" y2="392"/><ellipse cx="693" cy="406.3047" fill="#84BE84" rx="3" ry="3" style="stroke:#038048;stroke-width:1.0;"/><text fill="#000000" font-family="sans-serif" font-size="14" lengthAdjust="spacing" text-decoration="underline" textLength="234" x="702" y="410.5332">new(width, height): KruskalGenerator</text></g><!--class CELL_STATE--><g id="elem_CELL_STATE"><rect codeLine="30" fill="#F1F1F1" height="118.4375" id="CELL_STATE" rx="2.5" ry="2.5" style="stroke:#181818;stroke-width:0.5;" width="120" x="752" y="130"/><ellipse cx="767" cy="146" fill="#EB937F" rx="11" ry="11" style="stroke:#181818;stroke-width:1.0;"/><path d="M765.8594,146.7969 L765.8594,149.2969 L770.1875,149.2969 L770.1875,148.375 Q770.1875,147.7656 770.4219,147.5 Q770.6719,147.2344 771.0469,147.2344 Q771.4219,147.2344 771.6563,147.5 Q771.8906,147.7656 771.8906,148.375 L771.8906,151 L763.8906,151 Q763.2656,151 763,150.7656 Q762.75,150.5313 762.75,150.1406 Q762.75,149.7656 763.0156,149.5313 Q763.2813,149.2969 763.8906,149.2969 L764.1563,149.2969 L764.1563,142.6406 L763.8906,142.6406 Q763.2656,142.6406 763,142.4063 Q762.75,142.1719 762.75,141.7813 Q762.75,141.4063 763,141.1719 Q763.2656,140.9375 763.8906,140.9375 L771.5156,140.9375 L771.5156,143.5313 Q771.5156,144.1406 771.2813,144.4063 Q771.0625,144.6563 770.6719,144.6563 Q770.2969,144.6563 770.0625,144.4063 Q769.8281,144.1406 769.8281,143.5313 L769.8281,142.6406 L765.8594,142.6406 L765.8594,145.0938 L767.3438,145.0938 Q767.3438,144.4375 767.4688,144.25 Q767.7344,143.8438 768.2031,143.8438 Q768.5781,143.8438 768.8125,144.1094 Q769.0469,144.3594 769.0469,144.9688 L769.0469,146.9375 Q769.0469,147.4844 768.9219,147.6719 Q768.6563,148.0625 768.2031,148.0625 Q767.7344,148.0625 767.4688,147.6563 Q767.3438,147.4688 767.3438,146.7969 L765.8594,146.7969 Z " fill="#000000"/><text fill="#000000" font-family="sans-serif" font-size="14" lengthAdjust="spacing" textLength="88" x="781" y="151.7285">CELL_STATE</text><line style="stroke:#181818;stroke-width:0.5;" x1="753" x2="871" y1="162" y2="162"/><text fill="#000000" font-family="sans-serif" font-size="14" lengthAdjust="spacing" textLength="52" x="758" y="180.5332">VISITED</text><text fill="#000000" font-family="sans-serif" font-size="14" lengthAdjust="spacing" textLength="38" x="758" y="198.1426">WALL</text><text fill="#000000" font-family="sans-serif" font-size="14" lengthAdjust="spacing" textLength="70" x="758" y="215.752">UNVISITED</text><text fill="#000000" font-family="sans-serif" font-size="14" lengthAdjust="spacing" textLength="73" x="758" y="233.3613">SELECTED</text><line style="stroke:#181818;stroke-width:0.5;" x1="753" x2="871" y1="240.4375" y2="240.4375"/></g><!--class OriginShiftGenerator--><g id="elem_OriginShiftGenerator"><rect codeLine="40" fill="#F1F1F1" height="65.6094" id="OriginShiftGenerator" rx="2.5" ry="2.5" style="stroke:#181818;stroke-width:0.5;" width="339" x="1485.5" y="352"/><ellipse cx="1585.25" cy="368" fill="#ADD1B2" rx="11" ry="11" style="stroke:#181818;stroke-width:1.0;"/><path d="M1588.0156,363.875 Q1588.1719,363.6563 1588.3594,363.5469 Q1588.5469,363.4375 1588.7656,363.4375 Q1589.1406,363.4375 1589.375,363.7031 Q1589.6094,363.9531 1589.6094,364.5625 L1589.6094,366.0156 Q1589.6094,366.625 1589.375,366.8906 Q1589.1406,367.1563 1588.7656,367.1563 Q1588.4219,367.1563 1588.2188,366.9531 Q1588.0156,366.7656 1587.9063,366.25 Q1587.8594,365.8906 1587.6719,365.7031 Q1587.3438,365.3281 1586.7344,365.1094 Q1586.125,364.8906 1585.5,364.8906 Q1584.7344,364.8906 1584.0938,365.2188 Q1583.4688,365.5469 1582.9688,366.2969 Q1582.4844,367.0469 1582.4844,368.0781 L1582.4844,369.1719 Q1582.4844,370.4063 1583.375,371.2344 Q1584.2656,372.0469 1585.8594,372.0469 Q1586.7969,372.0469 1587.4531,371.7969 Q1587.8438,371.6406 1588.2656,371.2031 Q1588.5313,370.9375 1588.6719,370.8594 Q1588.8281,370.7813 1589.0313,370.7813 Q1589.3594,370.7813 1589.6094,371.0469 Q1589.875,371.2969 1589.875,371.6406 Q1589.875,371.9844 1589.5313,372.3906 Q1589.0313,372.9688 1588.2344,373.2969 Q1587.1563,373.75 1585.8594,373.75 Q1584.3438,373.75 1583.1406,373.125 Q1582.1563,372.625 1581.4688,371.5625 Q1580.7813,370.4844 1580.7813,369.2031 L1580.7813,368.0469 Q1580.7813,366.7188 1581.3906,365.5781 Q1582.0156,364.4219 1583.1094,363.8125 Q1584.2031,363.1875 1585.4375,363.1875 Q1586.1719,363.1875 1586.8125,363.3594 Q1587.4688,363.5156 1588.0156,363.875 Z " fill="#000000"/><text fill="#000000" font-family="sans-serif" font-size="14" lengthAdjust="spacing" textLength="131" x="1605.75" y="373.7285">OriginShiftGenerator</text><line style="stroke:#181818;stroke-width:0.5;" x1="1486.5" x2="1823.5" y1="384" y2="384"/><line style="stroke:#181818;stroke-width:0.5;" x1="1486.5" x2="1823.5" y1="392" y2="392"/><ellipse cx="1496.5" cy="406.3047" fill="#84BE84" rx="3" ry="3" style="stroke:#038048;stroke-width:1.0;"/><text fill="#000000" font-family="sans-serif" font-size="14" lengthAdjust="spacing" text-decoration="underline" textLength="313" x="1505.5" y="410.5332">new(width, height, nbSteps): OriginShiftGenerator</text></g><!--class CELL_STATE--><g id="elem_CELL_STATE"><rect codeLine="43" fill="#F1F1F1" height="100.8281" id="CELL_STATE" rx="2.5" ry="2.5" style="stroke:#181818;stroke-width:0.5;" width="120" x="1595" y="138.5"/><ellipse cx="1610" cy="154.5" fill="#EB937F" rx="11" ry="11" style="stroke:#181818;stroke-width:1.0;"/><path d="M1608.8594,155.2969 L1608.8594,157.7969 L1613.1875,157.7969 L1613.1875,156.875 Q1613.1875,156.2656 1613.4219,156 Q1613.6719,155.7344 1614.0469,155.7344 Q1614.4219,155.7344 1614.6563,156 Q1614.8906,156.2656 1614.8906,156.875 L1614.8906,159.5 L1606.8906,159.5 Q1606.2656,159.5 1606,159.2656 Q1605.75,159.0313 1605.75,158.6406 Q1605.75,158.2656 1606.0156,158.0313 Q1606.2813,157.7969 1606.8906,157.7969 L1607.1563,157.7969 L1607.1563,151.1406 L1606.8906,151.1406 Q1606.2656,151.1406 1606,150.9063 Q1605.75,150.6719 1605.75,150.2813 Q1605.75,149.9063 1606,149.6719 Q1606.2656,149.4375 1606.8906,149.4375 L1614.5156,149.4375 L1614.5156,152.0313 Q1614.5156,152.6406 1614.2813,152.9063 Q1614.0625,153.1563 1613.6719,153.1563 Q1613.2969,153.1563 1613.0625,152.9063 Q1612.8281,152.6406 1612.8281,152.0313 L1612.8281,151.1406 L1608.8594,151.1406 L1608.8594,153.5938 L1610.3438,153.5938 Q1610.3438,152.9375 1610.4688,152.75 Q1610.7344,152.3438 1611.2031,152.3438 Q1611.5781,152.3438 1611.8125,152.6094 Q1612.0469,152.8594 1612.0469,153.4688 L1612.0469,155.4375 Q1612.0469,155.9844 1611.9219,156.1719 Q1611.6563,156.5625 1611.2031,156.5625 Q1610.7344,156.5625 1610.4688,156.1563 Q1610.3438,155.9688 1610.3438,155.2969 L1608.8594,155.2969 Z " fill="#000000"/><text fill="#000000" font-family="sans-serif" font-size="14" lengthAdjust="spacing" textLength="88" x="1624" y="160.2285">CELL_STATE</text><line style="stroke:#181818;stroke-width:0.5;" x1="1596" x2="1714" y1="170.5" y2="170.5"/><text fill="#000000" font-family="sans-serif" font-size="14" lengthAdjust="spacing" textLength="52" x="1601" y="189.0332">VISITED</text><text fill="#000000" font-family="sans-serif" font-size="14" lengthAdjust="spacing" textLength="38" x="1601" y="206.6426">WALL</text><text fill="#000000" font-family="sans-serif" font-size="14" lengthAdjust="spacing" textLength="73" x="1601" y="224.252">SELECTED</text><line style="stroke:#181818;stroke-width:0.5;" x1="1596" x2="1714" y1="231.3281" y2="231.3281"/></g><!--class builder--><g id="elem_builder"><rect codeLine="52" fill="#F1F1F1" height="65.6094" id="builder" rx="2.5" ry="2.5" style="stroke:#181818;stroke-width:0.5;" width="225" x="376.5" y="352"/><ellipse cx="463.25" cy="368" fill="#A9DCDF" rx="11" ry="11" style="stroke:#181818;stroke-width:1.0;"/><path d="M465.4375,369.7656 L461.2969,369.7656 L460.875,370.7969 L461.2969,370.7969 Q461.9063,370.7969 462.1719,371.0313 Q462.4375,371.2656 462.4375,371.6563 Q462.4375,372.0313 462.1719,372.2656 Q461.9063,372.5 461.2969,372.5 L459,372.5 Q458.3906,372.5 458.1406,372.2656 Q457.875,372.0313 457.875,371.6406 Q457.875,371.2656 458.1563,371.0313 Q458.4219,370.7813 459.0469,370.7969 L461.7188,364.1406 L460.6094,364.1406 Q460,364.1406 459.7344,363.9063 Q459.4688,363.6719 459.4688,363.2813 Q459.4688,362.9063 459.7344,362.6719 Q460,362.4375 460.6094,362.4375 L464.2813,362.4375 L467.6719,370.7969 Q468.2656,370.7969 468.4531,370.9375 Q468.8438,371.2031 468.8438,371.6563 Q468.8438,372.0313 468.5781,372.2656 Q468.3281,372.5 467.7188,372.5 L465.4219,372.5 Q464.8125,372.5 464.5469,372.2656 Q464.2813,372.0313 464.2813,371.6406 Q464.2813,371.2656 464.5469,371.0313 Q464.8125,370.7969 465.4219,370.7969 L465.8438,370.7969 L465.4375,369.7656 Z M464.7188,368.0625 L463.3594,364.6875 L461.9844,368.0625 L464.7188,368.0625 Z " fill="#000000"/><text fill="#000000" font-family="sans-serif" font-size="14" font-style="italic" lengthAdjust="spacing" textLength="43" x="483.75" y="373.7285">builder</text><line style="stroke:#181818;stroke-width:0.5;" x1="377.5" x2="600.5" y1="384" y2="384"/><line style="stroke:#181818;stroke-width:0.5;" x1="377.5" x2="600.5" y1="392" y2="392"/><ellipse cx="387.5" cy="406.3047" fill="#84BE84" rx="3" ry="3" style="stroke:#038048;stroke-width:1.0;"/><text fill="#000000" font-family="sans-serif" font-size="14" lengthAdjust="spacing" text-decoration="underline" textLength="199" x="396.5" y="410.5332">build(producer, f, args): Thread</text></g><!--class computerCraft--><g id="elem_computerCraft"><rect codeLine="55" fill="#F1F1F1" height="100.8281" id="computerCraft" rx="2.5" ry="2.5" style="stroke:#181818;stroke-width:0.5;" width="203" x="387.5" y="138.5"/><ellipse cx="439.75" cy="154.5" fill="#A9DCDF" rx="11" ry="11" style="stroke:#181818;stroke-width:1.0;"/><path d="M441.9375,156.2656 L437.7969,156.2656 L437.375,157.2969 L437.7969,157.2969 Q438.4063,157.2969 438.6719,157.5313 Q438.9375,157.7656 438.9375,158.1563 Q438.9375,158.5313 438.6719,158.7656 Q438.4063,159 437.7969,159 L435.5,159 Q434.8906,159 434.6406,158.7656 Q434.375,158.5313 434.375,158.1406 Q434.375,157.7656 434.6563,157.5313 Q434.9219,157.2813 435.5469,157.2969 L438.2188,150.6406 L437.1094,150.6406 Q436.5,150.6406 436.2344,150.4063 Q435.9688,150.1719 435.9688,149.7813 Q435.9688,149.4063 436.2344,149.1719 Q436.5,148.9375 437.1094,148.9375 L440.7813,148.9375 L444.1719,157.2969 Q444.7656,157.2969 444.9531,157.4375 Q445.3438,157.7031 445.3438,158.1563 Q445.3438,158.5313 445.0781,158.7656 Q444.8281,159 444.2188,159 L441.9219,159 Q441.3125,159 441.0469,158.7656 Q440.7813,158.5313 440.7813,158.1406 Q440.7813,157.7656 441.0469,157.5313 Q441.3125,157.2969 441.9219,157.2969 L442.3438,157.2969 L441.9375,156.2656 Z M441.2188,154.5625 L439.8594,151.1875 L438.4844,154.5625 L441.2188,154.5625 Z " fill="#000000"/><text fill="#000000" font-family="sans-serif" font-size="14" font-style="italic" lengthAdjust="spacing" textLength="90" x="460.25" y="160.2285">computerCraft</text><line style="stroke:#181818;stroke-width:0.5;" x1="388.5" x2="589.5" y1="170.5" y2="170.5"/><line style="stroke:#181818;stroke-width:0.5;" x1="388.5" x2="589.5" y1="178.5" y2="178.5"/><ellipse cx="398.5" cy="192.8047" fill="#84BE84" rx="3" ry="3" style="stroke:#038048;stroke-width:1.0;"/><text fill="#000000" font-family="sans-serif" font-size="14" lengthAdjust="spacing" text-decoration="underline" textLength="165" x="407.5" y="197.0332">updateScreen(...): Thread</text><ellipse cx="398.5" cy="210.4141" fill="#84BE84" rx="3" ry="3" style="stroke:#038048;stroke-width:1.0;"/><text fill="#000000" font-family="sans-serif" font-size="14" lengthAdjust="spacing" text-decoration="underline" textLength="165" x="407.5" y="214.6426">updateScreen(...): Thread</text><ellipse cx="398.5" cy="228.0234" fill="#84BE84" rx="3" ry="3" style="stroke:#038048;stroke-width:1.0;"/><text fill="#000000" font-family="sans-serif" font-size="14" lengthAdjust="spacing" text-decoration="underline" textLength="177" x="407.5" y="232.252">displayProgress(...): Thread</text></g><!--class builder--><g id="elem_builder"><rect codeLine="63" fill="#F1F1F1" height="65.6094" id="builder" rx="2.5" ry="2.5" style="stroke:#181818;stroke-width:0.5;" width="245" x="1905.5" y="623"/><ellipse cx="2002.25" cy="639" fill="#A9DCDF" rx="11" ry="11" style="stroke:#181818;stroke-width:1.0;"/><path d="M2004.4375,640.7656 L2000.2969,640.7656 L1999.875,641.7969 L2000.2969,641.7969 Q2000.9063,641.7969 2001.1719,642.0313 Q2001.4375,642.2656 2001.4375,642.6563 Q2001.4375,643.0313 2001.1719,643.2656 Q2000.9063,643.5 2000.2969,643.5 L1998,643.5 Q1997.3906,643.5 1997.1406,643.2656 Q1996.875,643.0313 1996.875,642.6406 Q1996.875,642.2656 1997.1563,642.0313 Q1997.4219,641.7813 1998.0469,641.7969 L2000.7188,635.1406 L1999.6094,635.1406 Q1999,635.1406 1998.7344,634.9063 Q1998.4688,634.6719 1998.4688,634.2813 Q1998.4688,633.9063 1998.7344,633.6719 Q1999,633.4375 1999.6094,633.4375 L2003.2813,633.4375 L2006.6719,641.7969 Q2007.2656,641.7969 2007.4531,641.9375 Q2007.8438,642.2031 2007.8438,642.6563 Q2007.8438,643.0313 2007.5781,643.2656 Q2007.3281,643.5 2006.7188,643.5 L2004.4219,643.5 Q2003.8125,643.5 2003.5469,643.2656 Q2003.2813,643.0313 2003.2813,642.6406 Q2003.2813,642.2656 2003.5469,642.0313 Q2003.8125,641.7969 2004.4219,641.7969 L2004.8438,641.7969 L2004.4375,640.7656 Z M2003.7188,639.0625 L2002.3594,635.6875 L2000.9844,639.0625 L2003.7188,639.0625 Z " fill="#000000"/><text fill="#000000" font-family="sans-serif" font-size="14" font-style="italic" lengthAdjust="spacing" textLength="43" x="2022.75" y="644.7285">builder</text><line style="stroke:#181818;stroke-width:0.5;" x1="1906.5" x2="2149.5" y1="655" y2="655"/><line style="stroke:#181818;stroke-width:0.5;" x1="1906.5" x2="2149.5" y1="663" y2="663"/><ellipse cx="1916.5" cy="677.3047" fill="#84BE84" rx="3" ry="3" style="stroke:#038048;stroke-width:1.0;"/><text fill="#000000" font-family="sans-serif" font-size="14" lengthAdjust="spacing" text-decoration="underline" textLength="219" x="1925.5" y="681.5332">build(f, args, onUpdates): Function</text></g><!--class computerCraft--><g id="elem_computerCraft"><rect codeLine="66" fill="#F1F1F1" height="83.2188" id="computerCraft" rx="2.5" ry="2.5" style="stroke:#181818;stroke-width:0.5;" width="200" x="1928" y="343.5"/><ellipse cx="1978.75" cy="359.5" fill="#A9DCDF" rx="11" ry="11" style="stroke:#181818;stroke-width:1.0;"/><path d="M1980.9375,361.2656 L1976.7969,361.2656 L1976.375,362.2969 L1976.7969,362.2969 Q1977.4063,362.2969 1977.6719,362.5313 Q1977.9375,362.7656 1977.9375,363.1563 Q1977.9375,363.5313 1977.6719,363.7656 Q1977.4063,364 1976.7969,364 L1974.5,364 Q1973.8906,364 1973.6406,363.7656 Q1973.375,363.5313 1973.375,363.1406 Q1973.375,362.7656 1973.6563,362.5313 Q1973.9219,362.2813 1974.5469,362.2969 L1977.2188,355.6406 L1976.1094,355.6406 Q1975.5,355.6406 1975.2344,355.4063 Q1974.9688,355.1719 1974.9688,354.7813 Q1974.9688,354.4063 1975.2344,354.1719 Q1975.5,353.9375 1976.1094,353.9375 L1979.7813,353.9375 L1983.1719,362.2969 Q1983.7656,362.2969 1983.9531,362.4375 Q1984.3438,362.7031 1984.3438,363.1563 Q1984.3438,363.5313 1984.0781,363.7656 Q1983.8281,364 1983.2188,364 L1980.9219,364 Q1980.3125,364 1980.0469,363.7656 Q1979.7813,363.5313 1979.7813,363.1406 Q1979.7813,362.7656 1980.0469,362.5313 Q1980.3125,362.2969 1980.9219,362.2969 L1981.3438,362.2969 L1980.9375,361.2656 Z M1980.2188,359.5625 L1978.8594,356.1875 L1977.4844,359.5625 L1980.2188,359.5625 Z " fill="#000000"/><text fill="#000000" font-family="sans-serif" font-size="14" font-style="italic" lengthAdjust="spacing" textLength="90" x="1999.25" y="365.2285">computerCraft</text><line style="stroke:#181818;stroke-width:0.5;" x1="1929" x2="2127" y1="375.5" y2="375.5"/><line style="stroke:#181818;stroke-width:0.5;" x1="1929" x2="2127" y1="383.5" y2="383.5"/><ellipse cx="1939" cy="397.8047" fill="#84BE84" rx="3" ry="3" style="stroke:#038048;stroke-width:1.0;"/><text fill="#000000" font-family="sans-serif" font-size="14" lengthAdjust="spacing" text-decoration="underline" textLength="109" x="1948" y="402.0332">wait(...): Function</text><ellipse cx="1939" cy="415.4141" fill="#84BE84" rx="3" ry="3" style="stroke:#038048;stroke-width:1.0;"/><text fill="#000000" font-family="sans-serif" font-size="14" lengthAdjust="spacing" text-decoration="underline" textLength="174" x="1948" y="419.6426">updateScreen(...): Function</text></g><!--class DSet--><g id="elem_DSet"><rect codeLine="73" fill="#F1F1F1" height="118.4375" id="DSet" rx="2.5" ry="2.5" style="stroke:#181818;stroke-width:0.5;" width="195" x="650.5" y="597"/><ellipse cx="728.25" cy="613" fill="#ADD1B2" rx="11" ry="11" style="stroke:#181818;stroke-width:1.0;"/><path d="M731.0156,608.875 Q731.1719,608.6563 731.3594,608.5469 Q731.5469,608.4375 731.7656,608.4375 Q732.1406,608.4375 732.375,608.7031 Q732.6094,608.9531 732.6094,609.5625 L732.6094,611.0156 Q732.6094,611.625 732.375,611.8906 Q732.1406,612.1563 731.7656,612.1563 Q731.4219,612.1563 731.2188,611.9531 Q731.0156,611.7656 730.9063,611.25 Q730.8594,610.8906 730.6719,610.7031 Q730.3438,610.3281 729.7344,610.1094 Q729.125,609.8906 728.5,609.8906 Q727.7344,609.8906 727.0938,610.2188 Q726.4688,610.5469 725.9688,611.2969 Q725.4844,612.0469 725.4844,613.0781 L725.4844,614.1719 Q725.4844,615.4063 726.375,616.2344 Q727.2656,617.0469 728.8594,617.0469 Q729.7969,617.0469 730.4531,616.7969 Q730.8438,616.6406 731.2656,616.2031 Q731.5313,615.9375 731.6719,615.8594 Q731.8281,615.7813 732.0313,615.7813 Q732.3594,615.7813 732.6094,616.0469 Q732.875,616.2969 732.875,616.6406 Q732.875,616.9844 732.5313,617.3906 Q732.0313,617.9688 731.2344,618.2969 Q730.1563,618.75 728.8594,618.75 Q727.3438,618.75 726.1406,618.125 Q725.1563,617.625 724.4688,616.5625 Q723.7813,615.4844 723.7813,614.2031 L723.7813,613.0469 Q723.7813,611.7188 724.3906,610.5781 Q725.0156,609.4219 726.1094,608.8125 Q727.2031,608.1875 728.4375,608.1875 Q729.1719,608.1875 729.8125,608.3594 Q730.4688,608.5156 731.0156,608.875 Z " fill="#000000"/><text fill="#000000" font-family="sans-serif" font-size="14" lengthAdjust="spacing" textLength="31" x="748.75" y="618.7285">DSet</text><line style="stroke:#181818;stroke-width:0.5;" x1="651.5" x2="844.5" y1="629" y2="629"/><line style="stroke:#181818;stroke-width:0.5;" x1="651.5" x2="844.5" y1="637" y2="637"/><ellipse cx="661.5" cy="651.3047" fill="#84BE84" rx="3" ry="3" style="stroke:#038048;stroke-width:1.0;"/><text fill="#000000" font-family="sans-serif" font-size="14" lengthAdjust="spacing" text-decoration="underline" textLength="132" x="670.5" y="655.5332">makeSet(data): DSet</text><ellipse cx="661.5" cy="668.9141" fill="#84BE84" rx="3" ry="3" style="stroke:#038048;stroke-width:1.0;"/><text fill="#000000" font-family="sans-serif" font-size="14" lengthAdjust="spacing" textLength="114" x="670.5" y="673.1426">union(other): Void</text><ellipse cx="661.5" cy="686.5234" fill="#84BE84" rx="3" ry="3" style="stroke:#038048;stroke-width:1.0;"/><text fill="#000000" font-family="sans-serif" font-size="14" lengthAdjust="spacing" textLength="72" x="670.5" y="690.752">find(): DSet</text><ellipse cx="661.5" cy="704.1328" fill="#84BE84" rx="3" ry="3" style="stroke:#038048;stroke-width:1.0;"/><text fill="#000000" font-family="sans-serif" font-size="14" lengthAdjust="spacing" textLength="169" x="670.5" y="708.3613">connected(other): Boolean</text></g><!--class Stack--><g id="elem_Stack"><rect codeLine="79" fill="#F1F1F1" height="224.0938" id="Stack" rx="2.5" ry="2.5" style="stroke:#181818;stroke-width:0.5;" width="158" x="881" y="544"/><ellipse cx="938.25" cy="560" fill="#ADD1B2" rx="11" ry="11" style="stroke:#181818;stroke-width:1.0;"/><path d="M941.0156,555.875 Q941.1719,555.6563 941.3594,555.5469 Q941.5469,555.4375 941.7656,555.4375 Q942.1406,555.4375 942.375,555.7031 Q942.6094,555.9531 942.6094,556.5625 L942.6094,558.0156 Q942.6094,558.625 942.375,558.8906 Q942.1406,559.1563 941.7656,559.1563 Q941.4219,559.1563 941.2188,558.9531 Q941.0156,558.7656 940.9063,558.25 Q940.8594,557.8906 940.6719,557.7031 Q940.3438,557.3281 939.7344,557.1094 Q939.125,556.8906 938.5,556.8906 Q937.7344,556.8906 937.0938,557.2188 Q936.4688,557.5469 935.9688,558.2969 Q935.4844,559.0469 935.4844,560.0781 L935.4844,561.1719 Q935.4844,562.4063 936.375,563.2344 Q937.2656,564.0469 938.8594,564.0469 Q939.7969,564.0469 940.4531,563.7969 Q940.8438,563.6406 941.2656,563.2031 Q941.5313,562.9375 941.6719,562.8594 Q941.8281,562.7813 942.0313,562.7813 Q942.3594,562.7813 942.6094,563.0469 Q942.875,563.2969 942.875,563.6406 Q942.875,563.9844 942.5313,564.3906 Q942.0313,564.9688 941.2344,565.2969 Q940.1563,565.75 938.8594,565.75 Q937.3438,565.75 936.1406,565.125 Q935.1563,564.625 934.4688,563.5625 Q933.7813,562.4844 933.7813,561.2031 L933.7813,560.0469 Q933.7813,558.7188 934.3906,557.5781 Q935.0156,556.4219 936.1094,555.8125 Q937.2031,555.1875 938.4375,555.1875 Q939.1719,555.1875 939.8125,555.3594 Q940.4688,555.5156 941.0156,555.875 Z " fill="#000000"/><text fill="#000000" font-family="sans-serif" font-size="14" lengthAdjust="spacing" textLength="35" x="958.75" y="565.7285">Stack</text><line style="stroke:#181818;stroke-width:0.5;" x1="882" x2="1038" y1="576" y2="576"/><line style="stroke:#181818;stroke-width:0.5;" x1="882" x2="1038" y1="584" y2="584"/><ellipse cx="892" cy="598.3047" fill="#84BE84" rx="3" ry="3" style="stroke:#038048;stroke-width:1.0;"/><text fill="#000000" font-family="sans-serif" font-size="14" lengthAdjust="spacing" textLength="119" x="901" y="602.5332">isEmpty(): Boolean</text><ellipse cx="892" cy="615.9141" fill="#84BE84" rx="3" ry="3" style="stroke:#038048;stroke-width:1.0;"/><text fill="#000000" font-family="sans-serif" font-size="14" lengthAdjust="spacing" textLength="86" x="901" y="620.1426">size(): Integer</text><ellipse cx="892" cy="633.5234" fill="#84BE84" rx="3" ry="3" style="stroke:#038048;stroke-width:1.0;"/><text fill="#000000" font-family="sans-serif" font-size="14" lengthAdjust="spacing" textLength="107" x="901" y="637.752">push(elem): Void</text><ellipse cx="892" cy="651.1328" fill="#84BE84" rx="3" ry="3" style="stroke:#038048;stroke-width:1.0;"/><text fill="#000000" font-family="sans-serif" font-size="14" lengthAdjust="spacing" textLength="66" x="901" y="655.3613">pop(): Any</text><ellipse cx="892" cy="668.7422" fill="#84BE84" rx="3" ry="3" style="stroke:#038048;stroke-width:1.0;"/><text fill="#000000" font-family="sans-serif" font-size="14" lengthAdjust="spacing" textLength="125" x="901" y="672.9707">popOr(default): Any</text><ellipse cx="892" cy="686.3516" fill="#84BE84" rx="3" ry="3" style="stroke:#038048;stroke-width:1.0;"/><text fill="#000000" font-family="sans-serif" font-size="14" lengthAdjust="spacing" textLength="73" x="901" y="690.5801">peek(): Any</text><ellipse cx="892" cy="703.9609" fill="#84BE84" rx="3" ry="3" style="stroke:#038048;stroke-width:1.0;"/><text fill="#000000" font-family="sans-serif" font-size="14" lengthAdjust="spacing" textLength="132" x="901" y="708.1895">peekOr(default): Any</text><ellipse cx="892" cy="721.5703" fill="#84BE84" rx="3" ry="3" style="stroke:#038048;stroke-width:1.0;"/><text fill="#000000" font-family="sans-serif" font-size="14" lengthAdjust="spacing" textLength="88" x="901" y="725.7988">shuffle(): Void</text><ellipse cx="892" cy="739.1797" fill="#84BE84" rx="3" ry="3" style="stroke:#038048;stroke-width:1.0;"/><text fill="#000000" font-family="sans-serif" font-size="14" lengthAdjust="spacing" text-decoration="underline" textLength="126" x="901" y="743.4082">makeStack(t): Stack</text><ellipse cx="892" cy="756.7891" fill="#84BE84" rx="3" ry="3" style="stroke:#038048;stroke-width:1.0;"/><text fill="#000000" font-family="sans-serif" font-size="14" lengthAdjust="spacing" text-decoration="underline" textLength="78" x="901" y="761.0176">new(): Stack</text></g><!--class shuffle--><g id="elem_shuffle"><rect codeLine="91" fill="#F1F1F1" height="65.6094" id="shuffle" rx="2.5" ry="2.5" style="stroke:#181818;stroke-width:0.5;" width="151" x="884.5" y="828"/><ellipse cx="934.75" cy="844" fill="#A9DCDF" rx="11" ry="11" style="stroke:#181818;stroke-width:1.0;"/><path d="M936.9375,845.7656 L932.7969,845.7656 L932.375,846.7969 L932.7969,846.7969 Q933.4063,846.7969 933.6719,847.0313 Q933.9375,847.2656 933.9375,847.6563 Q933.9375,848.0313 933.6719,848.2656 Q933.4063,848.5 932.7969,848.5 L930.5,848.5 Q929.8906,848.5 929.6406,848.2656 Q929.375,848.0313 929.375,847.6406 Q929.375,847.2656 929.6563,847.0313 Q929.9219,846.7813 930.5469,846.7969 L933.2188,840.1406 L932.1094,840.1406 Q931.5,840.1406 931.2344,839.9063 Q930.9688,839.6719 930.9688,839.2813 Q930.9688,838.9063 931.2344,838.6719 Q931.5,838.4375 932.1094,838.4375 L935.7813,838.4375 L939.1719,846.7969 Q939.7656,846.7969 939.9531,846.9375 Q940.3438,847.2031 940.3438,847.6563 Q940.3438,848.0313 940.0781,848.2656 Q939.8281,848.5 939.2188,848.5 L936.9219,848.5 Q936.3125,848.5 936.0469,848.2656 Q935.7813,848.0313 935.7813,847.6406 Q935.7813,847.2656 936.0469,847.0313 Q936.3125,846.7969 936.9219,846.7969 L937.3438,846.7969 L936.9375,845.7656 Z M936.2188,844.0625 L934.8594,840.6875 L933.4844,844.0625 L936.2188,844.0625 Z " fill="#000000"/><text fill="#000000" font-family="sans-serif" font-size="14" font-style="italic" lengthAdjust="spacing" textLength="42" x="955.25" y="849.7285">shuffle</text><line style="stroke:#181818;stroke-width:0.5;" x1="885.5" x2="1034.5" y1="860" y2="860"/><line style="stroke:#181818;stroke-width:0.5;" x1="885.5" x2="1034.5" y1="868" y2="868"/><ellipse cx="895.5" cy="882.3047" fill="#84BE84" rx="3" ry="3" style="stroke:#038048;stroke-width:1.0;"/><text fill="#000000" font-family="sans-serif" font-size="14" lengthAdjust="spacing" text-decoration="underline" textLength="125" x="904.5" y="886.5332">inPlace(array): Void</text></g><!--class optFunc--><g id="elem_optFunc"><rect codeLine="94" fill="#F1F1F1" height="65.6094" id="optFunc" rx="2.5" ry="2.5" style="stroke:#181818;stroke-width:0.5;" width="151" x="464.5" y="623"/><ellipse cx="509.75" cy="639" fill="#A9DCDF" rx="11" ry="11" style="stroke:#181818;stroke-width:1.0;"/><path d="M511.9375,640.7656 L507.7969,640.7656 L507.375,641.7969 L507.7969,641.7969 Q508.4063,641.7969 508.6719,642.0313 Q508.9375,642.2656 508.9375,642.6563 Q508.9375,643.0313 508.6719,643.2656 Q508.4063,643.5 507.7969,643.5 L505.5,643.5 Q504.8906,643.5 504.6406,643.2656 Q504.375,643.0313 504.375,642.6406 Q504.375,642.2656 504.6563,642.0313 Q504.9219,641.7813 505.5469,641.7969 L508.2188,635.1406 L507.1094,635.1406 Q506.5,635.1406 506.2344,634.9063 Q505.9688,634.6719 505.9688,634.2813 Q505.9688,633.9063 506.2344,633.6719 Q506.5,633.4375 507.1094,633.4375 L510.7813,633.4375 L514.1719,641.7969 Q514.7656,641.7969 514.9531,641.9375 Q515.3438,642.2031 515.3438,642.6563 Q515.3438,643.0313 515.0781,643.2656 Q514.8281,643.5 514.2188,643.5 L511.9219,643.5 Q511.3125,643.5 511.0469,643.2656 Q510.7813,643.0313 510.7813,642.6406 Q510.7813,642.2656 511.0469,642.0313 Q511.3125,641.7969 511.9219,641.7969 L512.3438,641.7969 L511.9375,640.7656 Z M511.2188,639.0625 L509.8594,635.6875 L508.4844,639.0625 L511.2188,639.0625 Z " fill="#000000"/><text fill="#000000" font-family="sans-serif" font-size="14" font-style="italic" lengthAdjust="spacing" textLength="52" x="530.25" y="644.7285">optFunc</text><line style="stroke:#181818;stroke-width:0.5;" x1="465.5" x2="614.5" y1="655" y2="655"/><line style="stroke:#181818;stroke-width:0.5;" x1="465.5" x2="614.5" y1="663" y2="663"/><ellipse cx="475.5" cy="677.3047" fill="#84BE84" rx="3" ry="3" style="stroke:#038048;stroke-width:1.0;"/><text fill="#000000" font-family="sans-serif" font-size="14" lengthAdjust="spacing" text-decoration="underline" textLength="125" x="484.5" y="681.5332">create1(f): Function</text></g><!--reverse link AbstractGenerator to DeepFirstGenerator--><g id="link_AbstractGenerator_DeepFirstGenerator"><path d="M1136,286.25 C1136,309.85 1136,333.5 1136,351.63 " fill="none" id="AbstractGenerator-backto-DeepFirstGenerator" style="stroke:#181818;stroke-width:1.0;"/><polygon fill="none" points="1129,286.12,1136,266.12,1143,286.12,1129,286.12" style="stroke:#181818;stroke-width:1.0;"/></g><!--link DeepFirstGenerator to CELL_STATE--><g id="link_DeepFirstGenerator_CELL_STATE"><path codeLine="23" d="M1273.89,385 C1283.8,385 1293.72,385 1303.63,385 " fill="none" id="DeepFirstGenerator-to-CELL_STATE" style="stroke:#181818;stroke-width:1.0;stroke-dasharray:7.0,7.0;"/><polygon fill="#181818" points="1308.81,385,1299.81,381,1303.81,385,1299.81,389,1308.81,385" style="stroke:#181818;stroke-width:1.0;"/></g><!--reverse link AbstractGenerator to KruskalGenerator--><g id="link_AbstractGenerator_KruskalGenerator"><path d="M1038.99,247.91 C1020.09,259.21 1000.42,270.97 982,282 C943.02,305.34 899.04,331.73 865.58,351.82 " fill="none" id="AbstractGenerator-backto-KruskalGenerator" style="stroke:#181818;stroke-width:1.0;"/><polygon fill="none" points="1035.69,241.73,1056.45,237.48,1042.87,253.75,1035.69,241.73" style="stroke:#181818;stroke-width:1.0;"/></g><!--reverse link CELL_STATE to KruskalGenerator--><g id="link_CELL_STATE_KruskalGenerator"><path codeLine="36" d="M812,253.43 C812,286.32 812,325.07 812,351.77 " fill="none" id="CELL_STATE-backto-KruskalGenerator" style="stroke:#181818;stroke-width:1.0;stroke-dasharray:7.0,7.0;"/><polygon fill="#181818" points="812,248.21,808,257.21,812,253.21,816,257.21,812,248.21" style="stroke:#181818;stroke-width:1.0;"/></g><!--reverse link AbstractGenerator to OriginShiftGenerator--><g id="link_AbstractGenerator_OriginShiftGenerator"><path d="M1235.23,215.12 C1296.52,231.72 1376.3,255.29 1445,282 C1497.13,302.27 1554.08,330.32 1595.51,351.88 " fill="none" id="AbstractGenerator-backto-OriginShiftGenerator" style="stroke:#181818;stroke-width:1.0;"/><polygon fill="none" points="1233.12,221.8,1215.61,209.87,1236.74,208.28,1233.12,221.8" style="stroke:#181818;stroke-width:1.0;"/></g><!--link CELL_STATE to OriginShiftGenerator--><g id="link_CELL_STATE_OriginShiftGenerator"><path codeLine="48" d="M1655,239.71 C1655,273.03 1655,316.21 1655,346.62 " fill="none" id="CELL_STATE-to-OriginShiftGenerator" style="stroke:#181818;stroke-width:1.0;stroke-dasharray:7.0,7.0;"/><polygon fill="#181818" points="1655,351.77,1659,342.77,1655,346.77,1651,342.77,1655,351.77" style="stroke:#181818;stroke-width:1.0;"/></g><!--link computerCraft to builder--><g id="link_computerCraft_builder"><path codeLine="60" d="M489,239.71 C489,273.03 489,316.21 489,346.62 " fill="none" id="computerCraft-to-builder" style="stroke:#181818;stroke-width:1.0;stroke-dasharray:7.0,7.0;"/><polygon fill="#181818" points="489,351.77,493,342.77,489,346.77,485,342.77,489,351.77" style="stroke:#181818;stroke-width:1.0;"/></g><!--link computerCraft to builder--><g id="link_computerCraft_builder"><path codeLine="70" d="M2028,426.56 C2028,478.5 2028,567.76 2028,617.94 " fill="none" id="computerCraft-to-builder-1" style="stroke:#181818;stroke-width:1.0;stroke-dasharray:7.0,7.0;"/><polygon fill="#181818" points="2028,622.97,2032,613.97,2028,617.97,2024,613.97,2028,622.97" style="stroke:#181818;stroke-width:1.0;"/></g><!--link Stack to shuffle--><g id="link_Stack_shuffle"><path codeLine="97" d="M960,768 C960,787.63 960,806.78 960,822.48 " fill="none" id="Stack-to-shuffle" style="stroke:#181818;stroke-width:1.0;stroke-dasharray:7.0,7.0;"/><polygon fill="#181818" points="960,827.67,964,818.67,960,822.67,956,818.67,960,827.67" style="stroke:#181818;stroke-width:1.0;"/></g><!--link builder to optFunc--><g id="link_builder_optFunc"><path codeLine="113" d="M2014.71,622.94 C1994.34,578.31 1950.68,503.47 1884.5,496 C1850.44,492.16 684.56,492.16 650.5,496 C642.57,496.89 639.45,495.31 633,500 C592.62,529.38 566.6,582.12 552.64,618.07 " fill="none" id="builder-to-optFunc" style="stroke:#181818;stroke-width:1.0;stroke-dasharray:7.0,7.0;"/><polygon fill="#181818" points="550.83,622.81,557.7799,615.8315,552.6153,618.1396,550.3073,612.975,550.83,622.81" style="stroke:#181818;stroke-width:1.0;"/></g><!--link Maze to optFunc--><g id="link_Maze_optFunc"><path codeLine="114" d="M214.79,257.04 C246.71,320.84 299.72,417.84 360,492 C399.9,541.08 454.85,588.62 493.52,619.57 " fill="none" id="Maze-to-optFunc" style="stroke:#181818;stroke-width:1.0;stroke-dasharray:7.0,7.0;"/><polygon fill="#181818" points="497.68,622.88,493.1431,614.1383,493.7729,619.76,488.1512,620.3897,497.68,622.88" style="stroke:#181818;stroke-width:1.0;"/></g><!--link DeepFirstGenerator to StateUpdate--><g id="link_DeepFirstGenerator_StateUpdate"><path codeLine="116" d="M1143.66,418.18 C1153.27,458.57 1170.04,529.06 1182.79,582.66 " fill="none" id="DeepFirstGenerator-to-StateUpdate" style="stroke:#181818;stroke-width:1.0;stroke-dasharray:7.0,7.0;"/><polygon fill="#181818" points="1184.01,587.79,1185.8218,578.1092,1182.8545,582.9254,1178.0383,579.9581,1184.01,587.79" style="stroke:#181818;stroke-width:1.0;"/></g><!--reverse link DeepFirstGenerator to Stack--><g id="link_DeepFirstGenerator_Stack"><path codeLine="117" d="M1098.27,428.23 C1080.5,449.1 1059.6,475.09 1043,500 C1033.77,513.84 1024.71,528.82 1016.17,543.81 " fill="none" id="DeepFirstGenerator-backto-Stack" style="stroke:#181818;stroke-width:1.0;"/><polygon fill="#181818" points="1106.98,418.12,1100.0327,420.0525,1099.1445,427.2087,1106.0918,425.2762,1106.98,418.12" style="stroke:#181818;stroke-width:1.0;"/></g><!--link KruskalGenerator to StateUpdate--><g id="link_KruskalGenerator_StateUpdate"><path codeLine="119" d="M851.94,418.19 C884.8,442.8 933.69,475.27 982,492 C1012.84,502.68 1025.81,485.4 1055,500 C1093.16,519.09 1126.47,552.63 1151.5,583.63 " fill="none" id="KruskalGenerator-to-StateUpdate" style="stroke:#181818;stroke-width:1.0;stroke-dasharray:7.0,7.0;"/><polygon fill="#181818" points="1154.82,587.79,1152.3085,578.2668,1151.6913,583.8898,1146.0682,583.2727,1154.82,587.79" style="stroke:#181818;stroke-width:1.0;"/></g><!--reverse link KruskalGenerator to DSet--><g id="link_KruskalGenerator_DSet"><path codeLine="120" d="M801.32,430.88 C790.49,476.4 773.68,547.04 761.84,596.83 " fill="none" id="KruskalGenerator-backto-DSet" style="stroke:#181818;stroke-width:1.0;"/><polygon fill="#181818" points="804.34,418.18,799.0576,423.0887,801.557,429.8528,806.8394,424.9441,804.34,418.18" style="stroke:#181818;stroke-width:1.0;"/><text fill="#000000" font-family="sans-serif" font-size="13" lengthAdjust="spacing" textLength="7" x="795.3521" y="439.0764">1</text><text fill="#000000" font-family="sans-serif" font-size="13" lengthAdjust="spacing" textLength="5" x="758.2221" y="586.1335">*</text></g><!--reverse link KruskalGenerator to Stack--><g id="link_KruskalGenerator_Stack"><path codeLine="121" d="M836.12,429.84 C853.16,460.8 876.79,503.75 898.85,543.85 " fill="none" id="KruskalGenerator-backto-Stack" style="stroke:#181818;stroke-width:1.0;"/><polygon fill="#181818" points="829.71,418.18,829.0942,425.3648,835.4895,428.6965,836.1053,421.5118,829.71,418.18" style="stroke:#181818;stroke-width:1.0;"/></g><!--link OriginShiftGenerator to StateUpdate--><g id="link_OriginShiftGenerator_StateUpdate"><path codeLine="123" d="M1600.57,418.18 C1531.14,459.23 1409.16,531.34 1318,585.24 " fill="none" id="OriginShiftGenerator-to-StateUpdate" style="stroke:#181818;stroke-width:1.0;stroke-dasharray:7.0,7.0;"/><polygon fill="#181818" points="1313.68,587.79,1323.4629,586.6519,1317.9838,585.2449,1319.3907,579.7658,1313.68,587.79" style="stroke:#181818;stroke-width:1.0;"/></g><!--SRC=[nLRVJzim47xlNs7rAODWYLSqJM9G9hHk8AMmXsb29hasfgaJsOvOGVdVPoTEuiGki36sF2M-NzzzljnTGU8rMG6Aumrv0FGuGUefpE4A670YSowCWDmAoKaiKPmH8T2n-VpKwZLQ-jb7zpIHwH4wPn9Mm2r12dILIbVos7glb5B1ywICWGVlZj0YvK0Ilvw125hlEgTUhGDqGncLpwYeY2iEGj2SQSspB2UoLgqc0r8IWEACSY5Hdsr3nsahwVX0y5C2IuIX5_U4OeSxorqDJaWYQQnpP70Vr6o6XZi5putLMLVT6x1oWqvcy_bDj3XUp4OHhi-ZyyNiT73sxNW-7nnSVVMfHRFvxCG-D1pfnyC2_c2Xy76wvgLOaynXz7Dp_W_u74VwpsosRrQuznZxKOwup3bTKHQbTEbMw4KlUsjEGyHk8mc5KEJwmhuDmI-Z4gk2t8cfcbG3FfSqaz1rG4yNl2rfbi1kRcfvq3Qq42r3HFXAk8sjsXKXpZT5gK2SS3AurD4Tb4MYEc4KSm0MO8pT2AyrIAWeChAzDAtIRzEdCSIjMJTSJNgzbkOY5r9n52kthsJQy1kYd5tL2MggpqeMIzNQ_nRPzqGDb2Pzn_LGqqFo4s1-Xx9IqiogIpE48h1HMvUt8MjGma318Ng2g7ThAfTC3xvSfi37St9V_GCi2LoRE6SCOWb9P_SnppCWNMBL45ia5N9aBmbKp3Q5t0QkgH8A-b3FTNU5A4gH1f31neLQv8MsEMRRuU453n9OaZAJhXHW7NXFdp0IQRbSPfwzOqIuJZdGvlNRP4Vh7CixuaR5QQBwBvYooup4413EoNQ4gq8xFEQ5rENezwYALjNkOR3q56tliRbMNQi6dbMhJP0l_MxvXykXmW9P9Zh1zn-MYCEunzg__gxhyOmilmEDtab99IsXqHbMj0_xdUzG8m5lTPlsQY-X7kmql0jh7s5hq5HH2ylk67rpnMqJLTTLDn1iAg1Mh2yAOqTM2wtDe5k2iM_TK-PZ72-rtJiuCA6R_s5iR3P5x6o6pmJTQJSzdDP1ftjJ4xXhSYynVmwljOrXx_OrnZsfVW40]--></g></svg>