<?xml version="1.0" encoding="us-ascii" standalone="no"?><svg xmlns="http://www.w3.org/2000/svg" xmlns:xlink="http://www.w3.org/1999/xlink" contentStyleType="text/css" height="501px" preserveAspectRatio="none" style="width:545px;height:501px;background:#FFFFFF;" version="1.1" viewBox="0 0 545 501" width="545px" zoomAndPan="magnify"><defs/><g><rect fill="#FFFFFF" height="376.8672" style="stroke:#181818;stroke-width:1.0;" width="10" x="66.5" y="69.9609"/><rect fill="#FFFFFF" height="259.8125" style="stroke:#181818;stroke-width:1.0;" width="10" x="242.5" y="69.9609"/><rect fill="#FFFFFF" height="66.7031" style="stroke:#181818;stroke-width:1.0;" width="10" x="449.5" y="189.3672"/><line style="stroke:#181818;stroke-width:0.5;stroke-dasharray:5.0,5.0;" x1="71" x2="71" y1="37.6094" y2="464.8281"/><line style="stroke:#181818;stroke-width:0.5;stroke-dasharray:5.0,5.0;" x1="247" x2="247" y1="37.6094" y2="464.8281"/><line style="stroke:#181818;stroke-width:0.5;stroke-dasharray:5.0,5.0;" x1="454.5" x2="454.5" y1="37.6094" y2="464.8281"/><rect fill="#E2E2F0" height="31.6094" rx="2.5" ry="2.5" style="stroke:#181818;stroke-width:0.5;" width="47" x="48" y="5"/><text fill="#000000" font-family="sans-serif" font-size="14" lengthAdjust="spacing" textLength="33" x="55" y="26.5332">maze</text><rect fill="#E2E2F0" height="31.6094" rx="2.5" ry="2.5" style="stroke:#181818;stroke-width:0.5;" width="47" x="48" y="463.8281"/><text fill="#000000" font-family="sans-serif" font-size="14" lengthAdjust="spacing" textLength="33" x="55" y="485.3613">maze</text><rect fill="#E2E2F0" height="31.6094" rx="2.5" ry="2.5" style="stroke:#181818;stroke-width:0.5;" width="41" x="227" y="5"/><text fill="#000000" font-family="sans-serif" font-size="14" lengthAdjust="spacing" textLength="27" x="234" y="26.5332">filter</text><rect fill="#E2E2F0" height="31.6094" rx="2.5" ry="2.5" style="stroke:#181818;stroke-width:0.5;" width="41" x="227" y="463.8281"/><text fill="#000000" font-family="sans-serif" font-size="14" lengthAdjust="spacing" textLength="27" x="234" y="485.3613">filter</text><rect fill="#E2E2F0" height="31.6094" rx="2.5" ry="2.5" style="stroke:#181818;stroke-width:0.5;" width="76" x="416.5" y="5"/><text fill="#000000" font-family="sans-serif" font-size="14" lengthAdjust="spacing" textLength="62" x="423.5" y="26.5332">generator</text><rect fill="#E2E2F0" height="31.6094" rx="2.5" ry="2.5" style="stroke:#181818;stroke-width:0.5;" width="76" x="416.5" y="463.8281"/><text fill="#000000" font-family="sans-serif" font-size="14" lengthAdjust="spacing" textLength="62" x="423.5" y="485.3613">generator</text><rect fill="#FFFFFF" height="376.8672" style="stroke:#181818;stroke-width:1.0;" width="10" x="66.5" y="69.9609"/><rect fill="#FFFFFF" height="259.8125" style="stroke:#181818;stroke-width:1.0;" width="10" x="242.5" y="69.9609"/><rect fill="#FFFFFF" height="66.7031" style="stroke:#181818;stroke-width:1.0;" width="10" x="449.5" y="189.3672"/><polygon fill="#181818" points="230.5,65.9609,240.5,69.9609,230.5,73.9609,234.5,69.9609" style="stroke:#181818;stroke-width:1.0;"/><line style="stroke:#181818;stroke-width:1.0;stroke-dasharray:2.0,2.0;" x1="76.5" x2="236.5" y1="69.9609" y2="69.9609"/><text fill="#000000" font-family="sans-serif" font-size="13" lengthAdjust="spacing" textLength="71" x="83.5" y="65.1045">fetch update</text><path d="M257,82.9609 L257,108.9609 L331,108.9609 L331,92.9609 L321,82.9609 L257,82.9609 " fill="#FEFFDD" style="stroke:#181818;stroke-width:0.5;"/><path d="M321,82.9609 L321,92.9609 L331,92.9609 L321,82.9609 " fill="#FEFFDD" style="stroke:#181818;stroke-width:0.5;"/><text fill="#000000" font-family="sans-serif" font-size="13" lengthAdjust="spacing" textLength="53" x="263" y="101.4561">coroutine</text><path d="M5,119.3125 L5,161.3125 L62,161.3125 L62,129.3125 L52,119.3125 L5,119.3125 " fill="#FEFFDD" style="stroke:#181818;stroke-width:0.5;"/><path d="M52,119.3125 L52,129.3125 L62,129.3125 L52,119.3125 " fill="#FEFFDD" style="stroke:#181818;stroke-width:0.5;"/><text fill="#000000" font-family="sans-serif" font-size="13" lengthAdjust="spacing" textLength="28" x="11" y="137.8076">main</text><text fill="#000000" font-family="sans-serif" font-size="13" lengthAdjust="spacing" textLength="36" x="11" y="154.1592">thread</text><polygon fill="#181818" points="437.5,185.3672,447.5,189.3672,437.5,193.3672,441.5,189.3672" style="stroke:#181818;stroke-width:1.0;"/><line style="stroke:#181818;stroke-width:1.0;stroke-dasharray:2.0,2.0;" x1="252.5" x2="443.5" y1="189.3672" y2="189.3672"/><text fill="#000000" font-family="sans-serif" font-size="13" lengthAdjust="spacing" textLength="71" x="259.5" y="184.5107">fetch update</text><path d="M464,202.3672 L464,228.3672 L538,228.3672 L538,212.3672 L528,202.3672 L464,202.3672 " fill="#FEFFDD" style="stroke:#181818;stroke-width:0.5;"/><path d="M528,202.3672 L528,212.3672 L538,212.3672 L528,202.3672 " fill="#FEFFDD" style="stroke:#181818;stroke-width:0.5;"/><text fill="#000000" font-family="sans-serif" font-size="13" lengthAdjust="spacing" textLength="53" x="470" y="220.8623">coroutine</text><polygon fill="#181818" points="263.5,252.0703,253.5,256.0703,263.5,260.0703,259.5,256.0703" style="stroke:#181818;stroke-width:1.0;"/><line style="stroke:#181818;stroke-width:1.0;stroke-dasharray:2.0,2.0;" x1="257.5" x2="453.5" y1="256.0703" y2="256.0703"/><text fill="#000000" font-family="sans-serif" font-size="13" lengthAdjust="spacing" textLength="64" x="269.5" y="251.2139">grid update</text><line style="stroke:#181818;stroke-width:1.0;stroke-dasharray:2.0,2.0;" x1="252.5" x2="294.5" y1="286.4219" y2="286.4219"/><line style="stroke:#181818;stroke-width:1.0;stroke-dasharray:2.0,2.0;" x1="294.5" x2="294.5" y1="286.4219" y2="299.4219"/><line style="stroke:#181818;stroke-width:1.0;stroke-dasharray:2.0,2.0;" x1="253.5" x2="294.5" y1="299.4219" y2="299.4219"/><polygon fill="#181818" points="263.5,295.4219,253.5,299.4219,263.5,303.4219,259.5,299.4219" style="stroke:#181818;stroke-width:1.0;"/><text fill="#000000" font-family="sans-serif" font-size="13" lengthAdjust="spacing" textLength="183" x="259.5" y="281.5654">use data and/or apply transform</text><polygon fill="#181818" points="87.5,325.7734,77.5,329.7734,87.5,333.7734,83.5,329.7734" style="stroke:#181818;stroke-width:1.0;"/><line style="stroke:#181818;stroke-width:1.0;stroke-dasharray:2.0,2.0;" x1="81.5" x2="246.5" y1="329.7734" y2="329.7734"/><text fill="#000000" font-family="sans-serif" font-size="13" lengthAdjust="spacing" textLength="142" x="93.5" y="324.917">forward transformed data</text><line style="stroke:#181818;stroke-width:1.0;stroke-dasharray:2.0,2.0;" x1="76.5" x2="118.5" y1="360.125" y2="360.125"/><line style="stroke:#181818;stroke-width:1.0;stroke-dasharray:2.0,2.0;" x1="118.5" x2="118.5" y1="360.125" y2="373.125"/><line style="stroke:#181818;stroke-width:1.0;stroke-dasharray:2.0,2.0;" x1="77.5" x2="118.5" y1="373.125" y2="373.125"/><polygon fill="#181818" points="87.5,369.125,77.5,373.125,87.5,377.125,83.5,373.125" style="stroke:#181818;stroke-width:1.0;"/><text fill="#000000" font-family="sans-serif" font-size="13" lengthAdjust="spacing" textLength="123" x="83.5" y="355.2686">apply postprocessing</text><line style="stroke:#181818;stroke-width:1.0;stroke-dasharray:2.0,2.0;" x1="76.5" x2="118.5" y1="403.4766" y2="403.4766"/><line style="stroke:#181818;stroke-width:1.0;stroke-dasharray:2.0,2.0;" x1="118.5" x2="118.5" y1="403.4766" y2="416.4766"/><line style="stroke:#181818;stroke-width:1.0;stroke-dasharray:2.0,2.0;" x1="77.5" x2="118.5" y1="416.4766" y2="416.4766"/><polygon fill="#181818" points="87.5,412.4766,77.5,416.4766,87.5,420.4766,83.5,416.4766" style="stroke:#181818;stroke-width:1.0;"/><text fill="#000000" font-family="sans-serif" font-size="13" lengthAdjust="spacing" textLength="110" x="83.5" y="398.6201">update internal grid</text><polygon fill="#181818" points="235.5,442.8281,245.5,446.8281,235.5,450.8281,239.5,446.8281" style="stroke:#181818;stroke-width:1.0;"/><line style="stroke:#181818;stroke-width:1.0;stroke-dasharray:2.0,2.0;" x1="71.5" x2="241.5" y1="446.8281" y2="446.8281"/><text fill="#000000" font-family="sans-serif" font-size="13" lengthAdjust="spacing" textLength="100" x="78.5" y="441.9717">fetch next update</text><!--SRC=[VP5DZiCW38NtEOKlKCs-Yzx52YP12ZOoJcSwfny2-UkeBHj0-fxVintnb-1okO4Fav5UmPFr8yp9eL77OWGQXj50_8fqK4ulAhC5fexOmO8rTY9VqLZALZ1YOAWl6vNG7Jps5kx5fB7xRpLfLqqs49EYoUTmE_Kkt-vmaFlhQGA31hTvE7eXEsNRD7CcA084PFTLwc5AqmDCaRCNZMV9qcxfHFGRrHq8kLhWxBYE8cuhQifMEacsfD9Jpe67_qnB3u6Bdd6gBHtCywgPVkn5kmlz1m00]--></g></svg>